/vscmnt/brussel_pixiu_data/_data_brussel/112/vsc11236/PredSimResults/SUBJ04mtu3D/worker8.mot
version=1
nRows=7
nColumns=50
inDegrees=yes
endheader
                time	         pelvis_tilt	         pelvis_list	     pelvis_rotation	           pelvis_tx	           pelvis_ty	           pelvis_tz	       hip_flexion_r	     hip_adduction_r	      hip_rotation_r	        knee_angle_r	       ankle_angle_r	         mtp_angle_r	       hip_flexion_l	     hip_adduction_l	      hip_rotation_l	        knee_angle_l	       ankle_angle_l	         mtp_angle_l	    lumbar_extension	      lumbar_bending	     lumbar_rotation	 ercspn_r/activation	 intobl_r/activation	 extobl_r/activation	    abd_r/activation	    add_r/activation	hamstrings_r/activation	bifemsh_r/activation	glut_max_r/activation	iliopsoas_r/activation	rect_fem_r/activation	  vasti_r/activation	gastroc_r/activation	 soleus_r/activation	tib_ant_r/activation	 ercspn_l/activation	 intobl_l/activation	 extobl_l/activation	    abd_l/activation	    add_l/activation	hamstrings_l/activation	bifemsh_l/activation	glut_max_l/activation	iliopsoas_l/activation	rect_fem_l/activation	  vasti_l/activation	gastroc_l/activation	 soleus_l/activation	tib_ant_l/activation	
          1.36880287	         -2.86578322	          1.04568987	          8.80526124	          1.28667470	          0.87980467	         -0.01180392	         29.26979250	         -3.81675707	         -9.09409042	         -8.83084314	          4.91770676	          0.23279923	        -13.08730939	          0.31719152	         -7.74833290	         -7.56706250	         10.69845763	         24.50053761	        -13.95640116	         -4.31849374	         -6.64991727	          0.02768052	          0.23190417	          0.01850147	          0.01156617	          0.24007643	          0.08742825	          0.09973411	          0.02082302	          0.15816226	          0.01845759	          0.00999999	          0.01950896	          0.01852408	          0.30421592	          0.02359386	          0.00999999	          0.00999999	          0.05175652	          0.00999999	          0.02100132	          0.11958046	          0.01529757	          0.00999999	          0.00999999	          0.00999999	          0.34449839	          0.19052229	          0.00999999	
          1.38249090	         -2.95127561	          1.06400044	          8.58749226	          1.30304047	          0.87765308	         -0.01136644	         29.25086080	         -3.76061144	         -9.34540023	        -10.52056639	          4.63295555	          0.22330049	        -13.83174374	          0.21186303	         -8.39225510	         -8.05921673	         10.18361412	         25.96447082	        -13.46330178	         -3.72467379	         -6.73442839	          0.02253868	          0.22821250	          0.01506470	          0.02958130	          0.19548068	          0.08158674	          0.08120786	          0.04848805	          0.12878259	          0.01502897	          0.00999999	          0.01588504	          0.01508311	          0.33778578	          0.03251772	          0.00999999	          0.00999999	          0.04214241	          0.00999999	          0.01710019	          0.09736762	          0.01245595	          0.00999999	          0.00999999	          0.00999999	          0.32114140	          0.18220791	          0.00999999	
          1.39617893	         -3.02199510	          1.02672720	          8.31393775	          1.31970343	          0.87581865	         -0.01084128	         29.16602516	         -3.66851848	         -9.60488942	        -12.06113517	          4.16991716	          0.20965991	        -14.44511989	          0.03307495	         -9.07337076	         -8.83609029	          9.56440776	         27.46872955	        -12.94758598	         -3.04511414	         -6.79360372	          0.03693975	          0.18582055	          0.01226633	          0.05473249	          0.21170646	          0.07558871	          0.06612297	          0.07752646	          0.10486039	          0.01223724	          0.03760433	          0.01293429	          0.01228133	          0.35941094	          0.05912897	          0.00999999	          0.00999999	          0.03431419	          0.00999999	          0.01392372	          0.07928095	          0.01014217	          0.01852408	          0.00999999	          0.00999999	          0.29599249	          0.16580088	          0.00999999	
          1.40986696	         -3.07768096	          0.95183747	          7.98522956	          1.33650938	          0.87448849	         -0.01019433	         29.04117385	         -3.54441545	         -9.94318230	        -13.55425489	          3.74588611	          0.18988080	        -14.85163299	         -0.21435879	         -9.79378017	        -10.01460148	          8.80737839	         29.00451475	        -12.43214999	         -2.30864027	         -6.82407587	          0.03486026	          0.15130318	          0.00999999	          0.07662891	          0.21118832	          0.07181245	          0.05384020	          0.06557446	          0.08538189	          0.00999999	          0.09074066	          0.01053166	          0.00999999	          0.38629913	          0.06735856	          0.00999999	          0.00999999	          0.02794010	          0.00999999	          0.01133730	          0.06455400	          0.00999999	          0.01508311	          0.00999999	          0.00999999	          0.24704580	          0.14550284	          0.00999999	
          1.42355499	         -3.11851362	          0.83419115	          7.61696038	          1.35336896	          0.87377283	         -0.00942306	         28.80985145	         -3.36934266	        -10.33020904	        -14.90622105	          3.47884475	          0.16895505	        -14.99732951	         -0.55330477	        -10.54533402	        -11.67478825	          7.90643687	         30.51552882	        -11.92694650	         -1.51666551	         -6.82665184	          0.03079702	          0.12319764	          0.00999999	          0.10393930	          0.19158169	          0.07170442	          0.04383903	          0.06256719	          0.06952165	          0.00999999	          0.13236283	          0.00999999	          0.00999999	          0.39231942	          0.08739914	          0.00999999	          0.00999999	          0.02275005	          0.00999999	          0.01045562	          0.05256268	          0.00999999	          0.01228133	          0.00999999	          0.01604592	          0.20115544	          0.11847475	          0.00999999	
          1.43724301	         -3.14589073	          0.67073381	          7.22569198	          1.37015719	          0.87375668	         -0.00853517	         28.44257397	         -3.11856366	        -10.68111633	        -16.05514489	          3.39101402	          0.15196238	        -14.85310781	         -1.00185769	        -11.31480181	        -13.83972851	          6.84119054	         31.91230822	        -11.44437825	         -0.67161457	         -6.80609571	          0.02507627	          0.10031288	          0.00999999	          0.12676113	          0.17721587	          0.07100688	          0.03569565	          0.05514362	          0.05660756	          0.00999999	          0.16209339	          0.00999999	          0.00999999	          0.38635592	          0.10666800	          0.00999999	          0.00999999	          0.01852408	          0.00999999	          0.05982387	          0.04279882	          0.01209249	          0.00999999	          0.00999999	          0.01852408	          0.16378951	          0.09646730	          0.00999999	
          1.45093104	         -3.16102168	          0.46894403	          6.82507888	          1.38675324	          0.87446567	         -0.00754747	         27.93660206	         -2.78466235	        -10.92434902	        -16.97649702	          3.45334113	          0.14000987	        -14.40398990	         -1.56458486	        -12.09150437	        -16.50728137	          5.58805217	         33.08852434	        -10.99701301	          0.21374058	         -6.76724176	          0.02041819	          0.08167911	          0.00999999	          0.13802331	          0.18354841	          0.07324440	          0.02906495	          0.04490033	          0.04609234	          0.00999999	          0.17740582	          0.00999999	          0.00999999	          0.37374887	          0.10161410	          0.00999999	          0.00999999	          0.01508311	          0.07955520	          0.07400616	          0.03484866	          0.01228133	          0.00999999	          0.00999999	          0.01508311	          0.13336455	          0.07854787	          0.00999999	
